<svg xmlns="http://www.w3.org/2000/svg" xmlns:xlink="http://www.w3.org/1999/xlink" version="1.1" id="Capa_1" x="0px" y="0px" viewBox="0 0 512 512" style="enable-background:new 0 0 512 512;" xml:space="preserve">
<style type="text/css">
	.st0{fill:#FFFFFF;}
</style>
<g>
	<g id="Game_Pad">
		<g>
			<path class="st0" d="M426.9,289.4c-20.2-92.7-48.7-115.5-66.1-124.7c-27.8-14.7-60-6.1-70.7-0.6c-12.1,6.3-20.3,18.2-32.7,23.3     c-14.3,5.9-33.7,7.6-48.3,0.4c-11.6-5.7-21.9-18-36-23.4c-17.9-6.9-47.6-16.5-77,4.6c-7,5-56.6,46.6-71.5,176.6     c-9.2,80.2,34.8,106,33.1,104.8c11.3,8.1,36.6,21.8,70.9,0.3c22.9-14.3,41.5-42.6,41.5-42.6s8.3-15.7,19.3-22.4     c7.8-4.7,19.5-1.1,19.5-1.1h41.3c0,0,13.1-1.6,22.3,2.4c8.9,3.9,14,13.5,14,13.5s27.2,35.1,53.3,53.1     c11.1,7.6,55.7,16.4,78.7-11.8C433.6,423.4,443.8,366.8,426.9,289.4z M206.5,281.2c0,7-5.6,12.7-12.5,12.7h-31.3v31.9     c0,7.1-5.6,12.8-12.5,12.8h-9.4c-6.9,0-12.5-5.7-12.5-12.8V294H97.2c-6.9,0-12.5-5.7-12.5-12.7v-9.6c0-7.1,5.6-12.8,12.5-12.8     h31.3V227c0-7,5.6-12.8,12.5-12.8h9.4c6.9,0,12.5,5.7,12.5,12.8v31.9H194c6.9,0,12.5,5.7,12.5,12.8L206.5,281.2L206.5,281.2z      M294.6,325.9c-12.9,0-23.4-10.7-23.4-23.9c0-13.2,10.5-23.9,23.4-23.9c12.9,0,23.4,10.7,23.4,23.9     C318,315.2,307.5,325.9,294.6,325.9z M337.6,272.7c-12.8,0-23.2-10.6-23.2-23.7c0-13,10.4-23.6,23.2-23.6     c12.8,0,23.2,10.6,23.2,23.6C360.7,262.2,350.4,272.7,337.6,272.7z"/>
		</g>
	</g>
</g>
<path class="st0" d="M474.9,66.2h-46.7c-1.5,0-2.7-1.2-2.7-2.7V16.8c0-7.6-6.1-13.7-13.7-13.7c-7.6,0-13.7,6.1-13.7,13.7v46.7  c0,1.5-1.2,2.7-2.7,2.7h-46.7c-7.6,0-13.7,6.1-13.7,13.7c0,7.6,6.1,13.7,13.7,13.7h46.7c1.5,0,2.7,1.2,2.7,2.7v46.7  c0,7.6,6.1,13.7,13.7,13.7c7.6,0,13.7-6.1,13.7-13.7V96.4c0-1.5,1.2-2.7,2.7-2.7h46.7c7.6,0,13.7-6.1,13.7-13.7  C488.6,72.4,482.5,66.2,474.9,66.2z"/>
</svg>