<svg xmlns="http://www.w3.org/2000/svg" id="Layer_1" data-name="Layer 1" viewBox="0 0 512 512">
  <defs>
    <style>
      .cls-1 {
        fill: #fff;
      }
    </style>
  </defs>
  <title>twitter-round</title>
  <path class="cls-1" d="M256,0C114.62,0,0,114.62,0,256S114.62,512,256,512,512,397.38,512,256,397.38,0,256,0ZM382.08,191.39c.13,1.86.19,4.65.19,8.44a185.42,185.42,0,0,1-7.63,52.29,188.69,188.69,0,0,1-23.26,50.06,194.49,194.49,0,0,1-37.16,42.44q-21.59,18.42-52,29.4a190,190,0,0,1-65.07,11q-54.61,0-99.94-29.22a133.4,133.4,0,0,0,15.7.81q45.4,0,80.83-27.79a65.29,65.29,0,0,1-60.86-45.16,80.67,80.67,0,0,0,12.29,1,67.27,67.27,0,0,0,17.12-2.23,64,64,0,0,1-37.41-22.46,63.13,63.13,0,0,1-14.83-41.44v-.81a65,65,0,0,0,29.41,8.25,64.92,64.92,0,0,1-21.15-23.2,62.75,62.75,0,0,1-7.88-31,63.86,63.86,0,0,1,8.87-32.88,184.19,184.19,0,0,0,59.36,48.07,181.48,181.48,0,0,0,74.88,20,73.61,73.61,0,0,1-1.61-14.89q0-27,19-46c12.66-12.71,28-19,46-19,18.86,0,34.68,6.82,47.58,20.53a127.68,127.68,0,0,0,41.32-15.69,63.12,63.12,0,0,1-28.6,35.85,127.37,127.37,0,0,0,37.47-10.05A138.54,138.54,0,0,1,382.08,191.39Z"/>
<style xmlns="" class="darkreader darkreader--fallback">html, body, body :not(iframe) {
    background-color: #1d1f20 !important;
    border-color: #776f63 !important;
    color: #e3e1de !important;
}</style></svg>